<svg width="25" height="24" viewBox="0 0 25 24" fill="none"  class="ionicon" xmlns="http://www.w3.org/2000/svg">
<path d="M10.9745 13.6923L15.8207 8.84619M20.778 5.88867L16.6874 19.1833C16.3208 20.3747 16.1374 20.9707 15.8212 21.1683C15.5469 21.3396 15.2074 21.3683 14.9087 21.2443C14.5643 21.1014 14.2847 20.5433 13.7271 19.428L11.1361 14.2461C11.0476 14.0691 11.0033 13.981 10.9442 13.9043C10.8918 13.8363 10.8312 13.7749 10.7632 13.7225C10.6883 13.6647 10.6016 13.6214 10.4325 13.5369L5.23867 10.9399C4.12337 10.3823 3.56566 10.1032 3.42275 9.75879C3.29882 9.4601 3.32708 9.12023 3.49844 8.84597C3.69602 8.52974 4.29198 8.34603 5.48379 7.97932L18.7784 3.88867C19.7153 3.60038 20.184 3.45635 20.5005 3.57253C20.7761 3.67373 20.9935 3.89084 21.0947 4.16651C21.2108 4.48283 21.0667 4.95126 20.7786 5.88729L20.778 5.88867Z"  stroke-width="2" stroke-linecap="round" stroke-linejoin="round"/>
</svg>
