<svg width="14" height="11" viewBox="0 0 14 11" fill="none" xmlns="http://www.w3.org/2000/svg">
<path d="M11.8622 4.13425L10.3066 2.26758C10.0715 1.98543 9.95332 1.84426 9.8092 1.74284C9.68151 1.65297 9.53888 1.58635 9.3881 1.54578C9.21793 1.5 9.03484 1.5 8.66756 1.5H3.80009C3.05335 1.5 2.67971 1.5 2.39449 1.64532C2.14361 1.77316 1.93978 1.97698 1.81195 2.22786C1.66663 2.51308 1.66663 2.88673 1.66663 3.63346V7.3668C1.66663 8.11353 1.66663 8.48671 1.81195 8.77192C1.93978 9.0228 2.14361 9.22699 2.39449 9.35482C2.67943 9.5 3.05262 9.5 3.7979 9.5H8.66756C9.03484 9.5 9.21793 9.49989 9.3881 9.4541C9.53888 9.41354 9.68151 9.34681 9.8092 9.25695C9.95332 9.15553 10.0715 9.0147 10.3066 8.73255L11.8622 6.86589C12.267 6.38003 12.469 6.13706 12.5464 5.86589C12.6146 5.6268 12.6146 5.37301 12.5464 5.13393C12.469 4.86276 12.267 4.6201 11.8622 4.13425Z" stroke="#1DA1F2" stroke-width="2" stroke-linecap="round" stroke-linejoin="round"/>
</svg>
