<svg width="14" height="18" viewBox="0 0 14 18" fill="none" xmlns="http://www.w3.org/2000/svg">
<path d="M4.49996 13.1667H9.49996M4.49996 10.6667H9.49996M7.83361 1.50073C7.75399 1.5 7.66444 1.5 7.56222 1.5H3.83346C2.90003 1.5 2.43298 1.5 2.07646 1.68166C1.76285 1.84145 1.50807 2.09623 1.34828 2.40983C1.16663 2.76635 1.16663 3.23341 1.16663 4.16683V13.8335C1.16663 14.7669 1.16663 15.2334 1.34828 15.5899C1.50807 15.9035 1.76285 16.1587 2.07646 16.3185C2.43263 16.5 2.89913 16.5 3.83074 16.5L10.1692 16.5C11.1008 16.5 11.5666 16.5 11.9228 16.3185C12.2364 16.1587 12.492 15.9035 12.6518 15.5899C12.8333 15.2337 12.8333 14.7679 12.8333 13.8363V6.7714C12.8333 6.66918 12.8332 6.57961 12.8325 6.5M7.83361 1.50073C8.07149 1.5029 8.22139 1.51172 8.36511 1.54623C8.53517 1.58705 8.69817 1.65439 8.84729 1.74577C9.01543 1.84881 9.1598 1.99318 9.44788 2.28125L12.0524 4.88582C12.3407 5.17407 12.484 5.3178 12.5871 5.486C12.6785 5.63512 12.7461 5.79771 12.7869 5.96777C12.8214 6.11149 12.8303 6.26212 12.8325 6.5M7.83361 1.50073L7.83329 3.83351C7.83329 4.76693 7.83329 5.23346 8.01495 5.58998C8.17474 5.90358 8.42952 6.15873 8.74312 6.31852C9.09929 6.5 9.5658 6.5 10.4974 6.5H12.8325" stroke="#1DA1F2" stroke-width="2" stroke-linecap="round" stroke-linejoin="round"/>
</svg>
