<svg width="18" height="16" viewBox="0 0 18 16" fill="none" xmlns="http://www.w3.org/2000/svg">
<path d="M1.50004 12.1669C1.5 12.1131 1.5 12.0576 1.5 12.0003V4.00033C1.5 3.0669 1.5 2.59985 1.68166 2.24333C1.84144 1.92972 2.09623 1.67494 2.40983 1.51515C2.76635 1.3335 3.23341 1.3335 4.16683 1.3335H13.8335C14.7669 1.3335 15.2334 1.3335 15.5899 1.51515C15.9035 1.67494 16.1587 1.92972 16.3185 2.24333C16.5 2.5995 16.5 3.06599 16.5 3.99759V12.0027C16.5 12.4069 16.5 12.7234 16.4852 12.9813M1.50004 12.1669C1.50068 12.9905 1.51114 13.4217 1.68166 13.7563C1.84144 14.0699 2.09623 14.3256 2.40983 14.4854C2.766 14.6668 3.23249 14.6668 4.16409 14.6668H13.8363C14.7679 14.6668 15.2337 14.6668 15.5899 14.4854C15.9035 14.3256 16.1587 14.0699 16.3185 13.7563C16.4213 13.5547 16.4658 13.3179 16.4852 12.9813M1.50004 12.1669L5.47331 7.53141L5.47449 7.53013C5.82689 7.11899 6.00338 6.91308 6.21273 6.83887C6.39662 6.77367 6.59739 6.77519 6.78035 6.84294C6.98886 6.92013 7.16255 7.12839 7.50993 7.54525L9.7359 10.2164C10.0575 10.6023 10.2192 10.7963 10.4155 10.8742C10.5887 10.9429 10.7797 10.9507 10.9584 10.8979C11.1618 10.8379 11.3409 10.6589 11.699 10.3008L12.1132 9.88656C12.4778 9.52198 12.6601 9.33982 12.8664 9.28027C13.0476 9.22798 13.2414 9.23921 13.4157 9.3112C13.6142 9.39317 13.7752 9.59381 14.0972 9.99642L16.4852 12.9813M16.4852 12.9813L16.5 12.9998M11.5 6.3335C11.0398 6.3335 10.6667 5.9604 10.6667 5.50016C10.6667 5.03993 11.0398 4.66683 11.5 4.66683C11.9602 4.66683 12.3333 5.03993 12.3333 5.50016C12.3333 5.9604 11.9602 6.3335 11.5 6.3335Z" stroke="#1DA1F2" stroke-width="2" stroke-linecap="round" stroke-linejoin="round"/>
</svg>
