<svg width="16" height="16" viewBox="0 0 16 16" fill="none" xmlns="http://www.w3.org/2000/svg">
<path d="M5.50004 3L8.00004 0.5M8.00004 0.5L10.5 3M8.00004 0.5V8.83333M3.83357 6.33333C3.057 6.33333 2.66871 6.33333 2.36243 6.4602C1.95405 6.62936 1.6294 6.95401 1.46024 7.36239C1.33337 7.66867 1.33337 8.05676 1.33337 8.83333V12.8333C1.33337 13.7668 1.33337 14.2331 1.51503 14.5897C1.67482 14.9033 1.9296 15.1587 2.2432 15.3185C2.59938 15.5 3.06587 15.5 3.99747 15.5H12.003C12.9346 15.5 13.4004 15.5 13.7566 15.3185C14.0702 15.1587 14.3254 14.9033 14.4852 14.5897C14.6667 14.2335 14.6667 13.7675 14.6667 12.8359V8.83333C14.6667 8.05677 14.6666 7.66867 14.5398 7.36239C14.3706 6.95401 14.0462 6.62936 13.6378 6.4602C13.3316 6.33333 12.9433 6.33333 12.1667 6.33333" stroke="#657786" stroke-linecap="round" stroke-linejoin="round"/>
</svg>
