<svg width="18" height="18" viewBox="0 0 18 18" fill="none" xmlns="http://www.w3.org/2000/svg">
<path d="M6 3H5.40015C4.56007 3 4.13972 3 3.81885 3.16349C3.5366 3.3073 3.3073 3.5366 3.16349 3.81885C3 4.13972 3 4.56007 3 5.40015V6M6 3H12M6 3V1.5M12 3H12.6001C13.4402 3 13.8597 3 14.1805 3.16349C14.4628 3.3073 14.6929 3.5366 14.8367 3.81885C15 4.1394 15 4.55925 15 5.39768V6M12 3V1.5M3 6V12.6001C3 13.4402 3 13.86 3.16349 14.1809C3.3073 14.4632 3.5366 14.6929 3.81885 14.8367C4.1394 15 4.55925 15 5.39768 15H12.6023C13.4408 15 13.86 15 14.1805 14.8367C14.4628 14.6929 14.6929 14.4632 14.8367 14.1809C15 13.8604 15 13.4411 15 12.6027V6M3 6H15M12 12H12.0015L12.0015 12.0015L12 12.0015V12ZM9 12H9.0015L9.00146 12.0015L9 12.0015V12ZM6 12H6.0015L6.00146 12.0015L6 12.0015V12ZM12.0015 9V9.0015L12 9.00146V9H12.0015ZM9 9H9.0015L9.00146 9.0015L9 9.00146V9ZM6 9H6.0015L6.00146 9.0015L6 9.00146V9Z" stroke="#657786" stroke-width="1.5" stroke-linecap="round" stroke-linejoin="round"/>
</svg>
