<svg width="18" height="18" viewBox="0 0 18 18" fill="none" xmlns="http://www.w3.org/2000/svg">
<path d="M14.25 10.5L13.6472 14.7197C13.595 15.085 13.5688 15.268 13.4806 15.4054C13.4029 15.5264 13.2921 15.6224 13.1612 15.6823C13.013 15.75 12.8289 15.75 12.461 15.75H10.5M14.25 10.5H10.5M14.25 10.5C15.2273 10.0467 15.75 8.8228 15.75 7.75012C15.75 6.59855 14.9779 5.61235 13.8823 5.20276C13.6478 5.11507 13.5 4.88857 13.5 4.65637C13.5 3.70713 12.6605 2.93738 11.625 2.93738C11.4553 2.93738 11.291 2.95804 11.1346 2.99678C10.8105 3.0771 10.4479 3.05932 10.1689 2.88794C9.51304 2.48491 8.72395 2.25 7.875 2.25C5.59683 2.25 3.75 3.94292 3.75 6.03125C3.75 6.29521 3.57816 6.53676 3.33215 6.67395C2.68329 7.03581 2.25 7.69051 2.25 8.43762C2.25 9.39564 2.78421 10.2681 3.75 10.5M3.75 10.5L4.35282 14.7197L4.3529 14.7207C4.40501 15.0854 4.4311 15.2681 4.51921 15.4054C4.59692 15.5264 4.70789 15.6224 4.83875 15.6823C4.98699 15.75 5.17114 15.75 5.53896 15.75H7.5M3.75 10.5H7.5M7.5 10.5H10.5M7.5 10.5V15.75M10.5 10.5V15.75M10.5 15.75H7.5" stroke="#657786" stroke-width="1.5" stroke-linecap="round" stroke-linejoin="round"/>
</svg>
