<svg width="20" height="20" viewBox="0 0 20 20" fill="none" xmlns="http://www.w3.org/2000/svg">
<path d="M3.33337 6.66667V14C3.33337 14.9334 3.33337 15.3998 3.51503 15.7563C3.67482 16.0699 3.9296 16.3254 4.2432 16.4852C4.59938 16.6667 5.06587 16.6667 5.99747 16.6667H14.0026C14.9342 16.6667 15.4 16.6667 15.7562 16.4852C16.0698 16.3254 16.3254 16.0699 16.4852 15.7563C16.6667 15.4002 16.6667 14.9342 16.6667 14.0026V6.66667M3.33337 6.66667H16.6667M3.33337 6.66667L4.47102 4.67574C4.75021 4.18716 4.88978 3.94292 5.08608 3.76506C5.25991 3.60756 5.46553 3.48838 5.68852 3.41559C5.94055 3.33333 6.2219 3.33333 6.78552 3.33333H13.2143C13.7779 3.33333 14.0603 3.33333 14.3123 3.41559C14.5353 3.48838 14.74 3.60756 14.9138 3.76506C15.1102 3.94306 15.2502 4.18756 15.5298 4.67692L16.6667 6.66667M10 9.16667V14.1667M10 14.1667L12.5 12.5M10 14.1667L7.50004 12.5" stroke="#1DA1F2" stroke-width="2" stroke-linecap="round" stroke-linejoin="round"/>
</svg>
