<svg width="20" height="20" viewBox="0 0 20 20" fill="none" xmlns="http://www.w3.org/2000/svg">
<path d="M2.5 14V5C2.5 4.07953 3.24619 3.33333 4.16667 3.33333H7.22876C7.63642 3.33333 7.84072 3.33333 8.03253 3.37938C8.20259 3.42021 8.36488 3.48772 8.514 3.5791C8.68214 3.68214 8.82651 3.82651 9.11458 4.11458L10 5H14.8333C15.7668 5 16.2331 5 16.5897 5.18166C16.9033 5.34144 17.1587 5.59623 17.3185 5.90983C17.5002 6.26635 17.5002 6.73306 17.5002 7.66648L17.5002 13.9998C17.5002 14.9333 17.5002 15.4 17.3185 15.7565C17.1587 16.0701 16.9031 16.3254 16.5895 16.4852C16.2333 16.6667 15.7675 16.6667 14.8359 16.6667H5.16409C4.23249 16.6667 3.766 16.6667 3.40983 16.4852C3.09623 16.3254 2.84144 16.0699 2.68166 15.7563C2.5 15.3998 2.5 14.9334 2.5 14Z" fill="#1DA1F2"/>
<path d="M2.5 5V14C2.5 14.9334 2.5 15.3998 2.68166 15.7563C2.84144 16.0699 3.09623 16.3254 3.40983 16.4852C3.766 16.6667 4.23249 16.6667 5.16409 16.6667H14.8359C15.7675 16.6667 16.2333 16.6667 16.5895 16.4852C16.9031 16.3254 17.1587 16.0701 17.3185 15.7565C17.5002 15.4 17.5002 14.9333 17.5002 13.9998L17.5002 7.66648C17.5002 6.73306 17.5002 6.26635 17.3185 5.90983C17.1587 5.59623 16.9033 5.34144 16.5897 5.18166C16.2331 5 15.7668 5 14.8333 5H10M2.5 5H10M2.5 5C2.5 4.07953 3.24619 3.33333 4.16667 3.33333H7.22876C7.63642 3.33333 7.84072 3.33333 8.03253 3.37938C8.20259 3.42021 8.36488 3.48772 8.514 3.5791C8.68214 3.68214 8.82651 3.82651 9.11458 4.11458L10 5" stroke="#1DA1F2" stroke-width="2" stroke-linecap="round" stroke-linejoin="round"/>
</svg>
