<svg width="18" height="19" viewBox="0 0 18 19" fill="none" xmlns="http://www.w3.org/2000/svg">
<path d="M14.47 7.96353L12.72 5.86353C12.4555 5.5461 12.3225 5.38729 12.1604 5.27319C12.0167 5.1721 11.8563 5.09714 11.6867 5.05151C11.4952 5 11.2892 5 10.876 5H5.40015C4.56007 5 4.13972 5 3.81885 5.16349C3.5366 5.3073 3.3073 5.5366 3.16349 5.81885C3 6.13972 3 6.56007 3 7.40015V11.6001C3 12.4402 3 12.86 3.16349 13.1809C3.3073 13.4632 3.5366 13.6929 3.81885 13.8367C4.1394 14 4.55925 14 5.39768 14H10.876C11.2892 14 11.4952 13.9999 11.6867 13.9484C11.8563 13.9027 12.0167 13.8277 12.1604 13.7266C12.3225 13.6125 12.4555 13.454 12.72 13.1366L14.47 11.0366C14.9255 10.49 15.1527 10.2167 15.2397 9.91162C15.3165 9.64265 15.3165 9.35714 15.2397 9.08817C15.1527 8.78311 14.9255 8.51011 14.47 7.96353Z" stroke="#1DA1F2" stroke-width="2" stroke-linecap="round" stroke-linejoin="round"/>
</svg>
