<svg width="25" height="25" viewBox="0 0 25 25" fill="none" xmlns="http://www.w3.org/2000/svg">
<rect x="1" y="1" width="23" height="23" rx="11.5" stroke="black"/>
<path d="M16.6667 12.4998C16.6667 12.9601 17.0398 13.3332 17.5 13.3332C17.9602 13.3332 18.3333 12.9601 18.3333 12.4998C18.3333 12.0396 17.9602 11.6665 17.5 11.6665C17.0398 11.6665 16.6667 12.0396 16.6667 12.4998Z" fill="black"/>
<path d="M11.6667 12.4998C11.6667 12.9601 12.0398 13.3332 12.5 13.3332C12.9602 13.3332 13.3333 12.9601 13.3333 12.4998C13.3333 12.0396 12.9602 11.6665 12.5 11.6665C12.0398 11.6665 11.6667 12.0396 11.6667 12.4998Z" fill="black"/>
<path d="M6.66667 12.4998C6.66667 12.9601 7.03977 13.3332 7.50001 13.3332C7.96024 13.3332 8.33334 12.9601 8.33334 12.4998C8.33334 12.0396 7.96024 11.6665 7.50001 11.6665C7.03977 11.6665 6.66667 12.0396 6.66667 12.4998Z" fill="black"/>
<path d="M16.6667 12.4998C16.6667 12.9601 17.0398 13.3332 17.5 13.3332C17.9602 13.3332 18.3333 12.9601 18.3333 12.4998C18.3333 12.0396 17.9602 11.6665 17.5 11.6665C17.0398 11.6665 16.6667 12.0396 16.6667 12.4998Z" stroke="black" stroke-width="2" stroke-linecap="round" stroke-linejoin="round"/>
<path d="M11.6667 12.4998C11.6667 12.9601 12.0398 13.3332 12.5 13.3332C12.9602 13.3332 13.3333 12.9601 13.3333 12.4998C13.3333 12.0396 12.9602 11.6665 12.5 11.6665C12.0398 11.6665 11.6667 12.0396 11.6667 12.4998Z" stroke="black" stroke-width="2" stroke-linecap="round" stroke-linejoin="round"/>
<path d="M6.66667 12.4998C6.66667 12.9601 7.03977 13.3332 7.50001 13.3332C7.96024 13.3332 8.33334 12.9601 8.33334 12.4998C8.33334 12.0396 7.96024 11.6665 7.50001 11.6665C7.03977 11.6665 6.66667 12.0396 6.66667 12.4998Z" stroke="black" stroke-width="2" stroke-linecap="round" stroke-linejoin="round"/>
</svg>
