<svg width="43" height="43" viewBox="0 0 43 43" fill="none" xmlns="http://www.w3.org/2000/svg">
<path d="M21.5 27.5V24.5M21.5 24.5V21.5M21.5 24.5H18.5M21.5 24.5H24.5M22.5 12.5009C22.4045 12.5 22.2973 12.5 22.1747 12.5H17.7002C16.5801 12.5 16.0196 12.5 15.5918 12.718C15.2155 12.9097 14.9097 13.2155 14.718 13.5918C14.5 14.0196 14.5 14.5801 14.5 15.7002V27.3002C14.5 28.4203 14.5 28.9801 14.718 29.4079C14.9097 29.7842 15.2155 30.0905 15.5918 30.2822C16.0192 30.5 16.579 30.5 17.6969 30.5L25.3031 30.5C26.421 30.5 26.98 30.5 27.4074 30.2822C27.7837 30.0905 28.0905 29.7842 28.2822 29.4079C28.5 28.9805 28.5 28.4215 28.5 27.3036V18.8257C28.5 18.703 28.5 18.5956 28.4991 18.5M22.5 12.5009C22.7856 12.5035 22.9663 12.5138 23.1388 12.5553C23.3429 12.6043 23.5379 12.6853 23.7168 12.7949C23.9186 12.9186 24.0918 13.0918 24.4375 13.4375L27.563 16.563C27.9089 16.9089 28.0809 17.0814 28.2046 17.2832C28.3142 17.4621 28.3953 17.6573 28.4443 17.8613C28.4857 18.0338 28.4963 18.2145 28.4991 18.5M22.5 12.5009V15.3C22.5 16.4201 22.5 16.9798 22.718 17.4076C22.9097 17.7839 23.2155 18.0905 23.5918 18.2822C24.0192 18.5 24.579 18.5 25.6969 18.5H28.4991M28.4991 18.5H28.5002" stroke="#1DA1F2" stroke-width="2" stroke-linecap="round" stroke-linejoin="round"/>
</svg>
