<svg width="43" height="43" viewBox="0 0 43 43" fill="none" xmlns="http://www.w3.org/2000/svg">
<path d="M12.5001 27.5001C12.5 27.4355 12.5 27.3689 12.5 27.3002V15.7002C12.5 14.5801 12.5 14.0196 12.718 13.5918C12.9097 13.2155 13.2155 12.9097 13.5918 12.718C14.0196 12.5 14.5801 12.5 15.7002 12.5H27.3002C28.4203 12.5 28.9801 12.5 29.4079 12.718C29.7842 12.9097 30.0905 13.2155 30.2822 13.5918C30.5 14.0192 30.5 14.579 30.5 15.6969V27.3031C30.5 27.7881 30.5 28.1679 30.4822 28.4774M12.5001 27.5001C12.5008 28.4884 12.5134 29.0058 12.718 29.4074C12.9097 29.7837 13.2155 30.0905 13.5918 30.2822C14.0192 30.5 14.579 30.5 15.6969 30.5H27.3036C28.4215 30.5 28.9805 30.5 29.4079 30.2822C29.7842 30.0905 30.0905 29.7837 30.2822 29.4074C30.4055 29.1654 30.459 28.8813 30.4822 28.4774M12.5001 27.5001L17.268 21.9375L17.2694 21.936C17.6923 21.4426 17.9041 21.1955 18.1553 21.1064C18.3759 21.0282 18.6169 21.03 18.8364 21.1113C19.0866 21.204 19.2951 21.4539 19.7119 21.9541L22.3831 25.1595C22.769 25.6226 22.963 25.8554 23.1986 25.9489C23.4065 26.0313 23.6357 26.0406 23.8501 25.9773C24.0942 25.9053 24.3091 25.6904 24.7388 25.2607L25.2358 24.7637C25.6733 24.3262 25.8921 24.1076 26.1397 24.0361C26.3571 23.9734 26.5896 23.9869 26.7988 24.0732C27.037 24.1716 27.2302 24.4124 27.6167 24.8955L30.4822 28.4774M30.4822 28.4774L30.5 28.4996M24.5 18.5C23.9477 18.5 23.5 18.0523 23.5 17.5C23.5 16.9477 23.9477 16.5 24.5 16.5C25.0523 16.5 25.5 16.9477 25.5 17.5C25.5 18.0523 25.0523 18.5 24.5 18.5Z" stroke="#1DA1F2" stroke-width="2" stroke-linecap="round" stroke-linejoin="round"/>
</svg>
