<svg width="43" height="43" viewBox="0 0 43 43" fill="none" xmlns="http://www.w3.org/2000/svg">
<path d="M15.5 17.0002V16.7002C15.5 15.5801 15.5 15.0196 15.718 14.5918C15.9097 14.2155 16.2155 13.9097 16.5918 13.718C17.0196 13.5 17.5801 13.5 18.7002 13.5H27.3002C28.4203 13.5 28.9796 13.5 29.4074 13.718C29.7837 13.9097 30.0905 14.2155 30.2822 14.5918C30.5 15.0192 30.5 15.579 30.5 16.6969V23.3031C30.5 24.421 30.5 24.98 30.2822 25.4074C30.0905 25.7837 29.7839 26.0905 29.4076 26.2822C28.9802 26.5 28.421 26.5 27.3031 26.5H20M12.5 26.3002V20.7002C12.5 19.5801 12.5 19.0196 12.718 18.5918C12.9097 18.2155 13.2155 17.9097 13.5918 17.718C14.0196 17.5 14.5801 17.5 15.7002 17.5H16.3002C17.4203 17.5 17.9796 17.5 18.4074 17.718C18.7837 17.9097 19.0905 18.2155 19.2822 18.5918C19.5 19.0192 19.5 19.579 19.5 20.6969V26.3031C19.5 27.421 19.5 27.98 19.2822 28.4074C19.0905 28.7837 18.7837 29.0905 18.4074 29.2822C17.98 29.5 17.421 29.5 16.3031 29.5H15.6969C14.579 29.5 14.0192 29.5 13.5918 29.2822C13.2155 29.0905 12.9097 28.7837 12.718 28.4074C12.5 27.9796 12.5 27.4203 12.5 26.3002Z" stroke="#1DA1F2" stroke-width="2" stroke-linecap="round" stroke-linejoin="round"/>
</svg>
