<svg width="43" height="43" viewBox="0 0 43 43" fill="none" xmlns="http://www.w3.org/2000/svg">
<path d="M19.8078 23.1923L24.6539 18.3462M29.6113 15.3887L25.5207 28.6833C25.1541 29.8747 24.9706 30.4707 24.6544 30.6683C24.3802 30.8396 24.0406 30.8683 23.7419 30.7443C23.3975 30.6014 23.118 30.0433 22.5603 28.928L19.9694 23.7461C19.8809 23.5691 19.8366 23.481 19.7775 23.4043C19.725 23.3363 19.6645 23.2749 19.5965 23.2225C19.5215 23.1647 19.4349 23.1214 19.2658 23.0369L14.0719 20.4399C12.9566 19.8823 12.3989 19.6032 12.256 19.2588C12.1321 18.9601 12.1603 18.6202 12.3317 18.346C12.5293 18.0297 13.1252 17.846 14.317 17.4793L27.6116 13.3887C28.5486 13.1004 29.0173 12.9563 29.3337 13.0725C29.6094 13.1737 29.8267 13.3908 29.9279 13.6665C30.044 13.9828 29.8999 14.4513 29.6119 15.3873L29.6113 15.3887Z" stroke="#1DA1F2" stroke-width="2" stroke-linecap="round" stroke-linejoin="round"/>
</svg>
